<svg width="559" height="299" viewBox="0 0 559 299" fill="none" xmlns="http://www.w3.org/2000/svg">
<path d="M191.418 296.403C182.441 294.674 173.964 290.529 166.701 284.32C117.546 252.937 67.0018 222.652 18.6795 188.915C10.439 183.179 4.47135 174.074 2.0166 163.495C2.91942 154.58 2.91942 145.577 2.0166 136.663C4.19989 128.109 8.25905 120.315 13.8178 114.006C19.3765 107.697 26.2547 103.076 33.8149 100.571C38.8503 97.986 44.3548 96.7806 49.8804 97.0532C55.4059 97.3259 60.7964 99.069 65.6132 102.141C88.247 115.007 109.492 130.7 131.57 144.352C133.115 145.456 134.288 147.113 134.903 149.059C154.343 164.75 176.56 176.206 196.972 190.171C211.691 200.214 228.909 205.862 238.63 224.379C241.366 229.134 243.21 234.476 244.045 240.07C242.659 245.877 242.659 251.995 244.045 257.801C242.812 267.145 239.12 275.852 233.448 282.792C227.778 289.732 220.39 294.584 212.247 296.717C205.354 295.467 198.337 295.361 191.418 296.403Z" fill="#4285F4"/>
<path d="M423.766 149.574L342.256 97.1634C338.091 94.4957 334.203 91.2005 330.315 88.2191C327.883 83.2979 324.397 79.1438 320.179 76.1366C304.349 48.3623 313.097 18.5483 341.285 4.26893C342.844 5.08889 344.586 5.36217 346.284 5.0535C347.116 5.0535 347.95 5.0535 348.783 5.0535C349.616 5.0535 346.561 4.11202 345.867 2.85668C350.554 0.591655 355.658 -0.349148 360.738 0.115639C365.819 0.580425 370.724 2.43681 375.027 5.52426C406.964 25.7664 439.179 45.6948 470.7 67.0354C486.529 77.7057 502.775 88.376 519.577 97.3202C535.026 103.471 547.864 115.961 555.542 132.313C565.401 158.047 553.736 182.84 526.242 197.589H524.438C516.939 197.589 509.302 197.589 501.942 199.002C481.746 190.361 462.465 179.204 444.456 165.735C436.541 161.499 427.931 158.832 423.766 149.574Z" fill="#0F9D58"/>
<path d="M423.745 149.574L488.453 190.216C492.755 192.51 497.158 194.553 501.645 196.335C509.501 195.629 517.395 195.629 525.251 196.335V197.277C475.4 228.66 425.967 261.77 375.701 292.682C365.457 298.635 353.545 299.766 342.565 295.827C331.585 291.886 322.431 283.197 317.103 271.655C314.283 266.02 312.52 259.79 311.927 253.35C311.333 246.911 311.922 240.403 313.655 234.233C315.388 228.061 318.229 222.361 322 217.488C325.771 212.614 330.391 208.672 335.571 205.908C365.01 187.705 394.447 168.404 423.745 149.574Z" fill="#FBBC04"/>
<path d="M134.779 149.085C114.528 138.649 94.9884 126.534 76.3202 112.837C63.7776 103.342 48.7233 99.0199 33.691 100.598C81.8746 69.2146 130.891 38.616 178.241 7.23263C202.403 -8.45895 239.894 7.23263 244.199 40.0281C242.69 45.8158 242.69 51.972 244.199 57.7597C243.369 64.9834 240.918 71.8472 237.078 77.6977C233.238 83.5481 228.136 88.1904 222.259 91.1829C193.654 110.955 164.217 129.785 134.779 149.085Z" fill="#EA4335"/>
<path d="M1.87103 136.708C3.48719 140.945 4.32081 145.51 4.32081 150.124C4.32081 154.738 3.48719 159.304 1.87103 163.54C-0.623676 154.818 -0.623676 145.43 1.87103 136.708Z" fill="#1F2023"/>
<path d="M191.409 296.463C194.63 294.414 198.265 293.339 201.962 293.339C205.659 293.339 209.293 294.414 212.515 296.463C205.654 298.971 198.269 298.971 191.409 296.463Z" fill="#1F2023"/>
<path d="M320.128 76.1069C325.405 77.9899 330.682 80.0299 330.265 88.1895C327.954 87.0309 325.868 85.3668 324.128 83.2932C322.388 81.2194 321.029 78.7771 320.128 76.1069Z" fill="#1F2023"/>
<path d="M244.499 57.7603C242.917 55.1494 242.071 52.059 242.071 48.8945C242.071 45.7302 242.917 42.6397 244.499 40.0288C245.539 45.8809 245.539 51.9083 244.499 57.7603Z" fill="#1F2023"/>
<path d="M244.313 257.383C242.731 254.772 241.884 251.682 241.884 248.517C241.884 245.353 242.731 242.262 244.313 239.652C245.424 245.495 245.424 251.539 244.313 257.383Z" fill="#1F2023"/>
<path d="M345.858 3.3241L353.634 4.57942C351.845 6.07046 349.679 6.87478 347.455 6.87478C345.232 6.87478 343.066 6.07046 341.277 4.57942L345.858 3.3241Z" fill="#1F2023"/>
<path d="M525.21 196.683C517.529 199.426 509.286 199.426 501.605 196.683C505.298 194.723 509.328 193.707 513.408 193.707C517.488 193.707 521.517 194.723 525.21 196.683Z" fill="#1F2023"/>
</svg>
