<svg width="1167" height="997" viewBox="0 0 1167 997" fill="none" xmlns="http://www.w3.org/2000/svg">
<mask id="path-1-inside-1_20_3" fill="white">
<path fill-rule="evenodd" clip-rule="evenodd" d="M47.5536 0.80249C21.2904 0.80249 0 22.0929 0 48.356V83.4078V95.9096V870.023C0 922.549 42.5809 965.13 95.1071 965.13H1020.74C1073.27 965.13 1115.85 922.549 1115.85 870.023V178.515C1115.85 125.989 1073.27 83.4078 1020.74 83.4078H544.635V56.2816C544.635 25.6414 519.796 0.80249 489.156 0.80249H47.5536Z"/>
</mask>
<path fill-rule="evenodd" clip-rule="evenodd" d="M47.5536 0.80249C21.2904 0.80249 0 22.0929 0 48.356V83.4078V95.9096V870.023C0 922.549 42.5809 965.13 95.1071 965.13H1020.74C1073.27 965.13 1115.85 922.549 1115.85 870.023V178.515C1115.85 125.989 1073.27 83.4078 1020.74 83.4078H544.635V56.2816C544.635 25.6414 519.796 0.80249 489.156 0.80249H47.5536Z" fill="#1F2023"/>
<path d="M544.635 83.4078H538.691V89.352H544.635V83.4078ZM5.94419 48.356C5.94419 25.3758 24.5733 6.74668 47.5536 6.74668V-5.1417C18.0076 -5.1417 -5.94419 18.81 -5.94419 48.356H5.94419ZM5.94419 83.4078V48.356H-5.94419V83.4078H5.94419ZM5.94419 95.9096V83.4078H-5.94419V95.9096H5.94419ZM5.94419 870.023V95.9096H-5.94419V870.023H5.94419ZM95.1071 959.186C45.8638 959.186 5.94419 919.266 5.94419 870.023H-5.94419C-5.94419 925.832 39.298 971.074 95.1071 971.074V959.186ZM1020.74 959.186H95.1071V971.074H1020.74V959.186ZM1109.9 870.023C1109.9 919.266 1069.98 959.186 1020.74 959.186V971.074C1076.55 971.074 1121.79 925.832 1121.79 870.023H1109.9ZM1109.9 178.515V870.023H1121.79V178.515H1109.9ZM1020.74 89.352C1069.98 89.352 1109.9 129.272 1109.9 178.515H1121.79C1121.79 122.706 1076.55 77.4636 1020.74 77.4636V89.352ZM544.635 89.352H1020.74V77.4636H544.635V89.352ZM538.691 56.2816V83.4078H550.579V56.2816H538.691ZM489.156 6.74668C516.513 6.74668 538.691 28.9242 538.691 56.2816H550.579C550.579 22.3585 523.079 -5.1417 489.156 -5.1417V6.74668ZM47.5536 6.74668H489.156V-5.1417H47.5536V6.74668Z" fill="#1F2023" mask="url(#path-1-inside-1_20_3)"/>
<mask id="path-3-outside-2_20_3" maskUnits="userSpaceOnUse" x="28.735" y="20.5605" width="1139" height="977" fill="black">
<rect fill="white" x="28.735" y="20.5605" width="1139" height="977"/>
<path fill-rule="evenodd" clip-rule="evenodd" d="M82.2886 26.5605C56.0255 26.5605 34.735 47.851 34.735 74.1141L34.735 109.166V895.781C34.735 948.307 77.3158 990.888 129.842 990.888H1065.89C1118.42 990.888 1161 948.307 1161 895.781V204.273C1161 151.747 1118.42 109.166 1065.89 109.166H584.455V82.0397C584.455 51.3994 559.616 26.5605 528.975 26.5605H82.2886Z"/>
</mask>
<path fill-rule="evenodd" clip-rule="evenodd" d="M82.2886 26.5605C56.0255 26.5605 34.735 47.851 34.735 74.1141L34.735 109.166V895.781C34.735 948.307 77.3158 990.888 129.842 990.888H1065.89C1118.42 990.888 1161 948.307 1161 895.781V204.273C1161 151.747 1118.42 109.166 1065.89 109.166H584.455V82.0397C584.455 51.3994 559.616 26.5605 528.975 26.5605H82.2886Z" fill="white"/>
<path d="M34.735 74.1141L40.6792 74.1141V74.1141H34.735ZM34.735 109.166L28.7908 109.166V109.166H34.735ZM584.455 109.166H578.51V115.11H584.455V109.166ZM40.6792 74.1141C40.6792 51.1339 59.3084 32.5047 82.2886 32.5047V20.6164C52.7426 20.6164 28.7908 44.5681 28.7908 74.1141H40.6792ZM40.6792 109.166L40.6792 74.1141L28.7908 74.1141L28.7908 109.166L40.6792 109.166ZM40.6792 895.781V109.166H28.7908V895.781H40.6792ZM129.842 984.944C80.5987 984.944 40.6792 945.024 40.6792 895.781H28.7908C28.7908 951.59 74.0329 996.832 129.842 996.832V984.944ZM1065.89 984.944H129.842V996.832H1065.89V984.944ZM1155.06 895.781C1155.06 945.024 1115.14 984.944 1065.89 984.944V996.832C1121.7 996.832 1166.94 951.59 1166.94 895.781H1155.06ZM1155.06 204.273V895.781H1166.94V204.273H1155.06ZM1065.89 115.11C1115.14 115.11 1155.06 155.03 1155.06 204.273H1166.94C1166.94 148.464 1121.7 103.222 1065.89 103.222V115.11ZM584.455 115.11H1065.89V103.222H584.455V115.11ZM578.51 82.0397V109.166H590.399V82.0397H578.51ZM528.975 32.5047C556.333 32.5047 578.51 54.6823 578.51 82.0397H590.399C590.399 48.1165 562.899 20.6164 528.975 20.6164V32.5047ZM82.2886 32.5047H528.975V20.6164H82.2886V32.5047Z" fill="#1F2023" mask="url(#path-3-outside-2_20_3)"/>
<mask id="mask0_20_3" style="mask-type:alpha" maskUnits="userSpaceOnUse" x="34" y="26" width="1127" height="965">
<mask id="path-5-inside-3_20_3" fill="white">
<path fill-rule="evenodd" clip-rule="evenodd" d="M82.2886 26.5605C56.0255 26.5605 34.735 47.851 34.735 74.1141L34.735 109.166V895.781C34.735 948.307 77.3158 990.888 129.842 990.888H1065.89C1118.42 990.888 1161 948.307 1161 895.781V204.273C1161 151.747 1118.42 109.166 1065.89 109.166H584.455V82.0397C584.455 51.3994 559.616 26.5605 528.975 26.5605H82.2886Z"/>
</mask>
<path fill-rule="evenodd" clip-rule="evenodd" d="M82.2886 26.5605C56.0255 26.5605 34.735 47.851 34.735 74.1141L34.735 109.166V895.781C34.735 948.307 77.3158 990.888 129.842 990.888H1065.89C1118.42 990.888 1161 948.307 1161 895.781V204.273C1161 151.747 1118.42 109.166 1065.89 109.166H584.455V82.0397C584.455 51.3994 559.616 26.5605 528.975 26.5605H82.2886Z" fill="white"/>
<path d="M34.735 74.1141L40.6792 74.1141V74.1141H34.735ZM34.735 109.166L28.7908 109.166V109.166H34.735ZM584.455 109.166H578.51V115.11H584.455V109.166ZM40.6792 74.1141C40.6792 51.1339 59.3084 32.5047 82.2886 32.5047V20.6164C52.7426 20.6164 28.7908 44.5681 28.7908 74.1141H40.6792ZM40.6792 109.166L40.6792 74.1141L28.7908 74.1141L28.7908 109.166L40.6792 109.166ZM40.6792 895.781V109.166H28.7908V895.781H40.6792ZM129.842 984.944C80.5987 984.944 40.6792 945.024 40.6792 895.781H28.7908C28.7908 951.59 74.0329 996.832 129.842 996.832V984.944ZM1065.89 984.944H129.842V996.832H1065.89V984.944ZM1155.06 895.781C1155.06 945.024 1115.14 984.944 1065.89 984.944V996.832C1121.7 996.832 1166.94 951.59 1166.94 895.781H1155.06ZM1155.06 204.273V895.781H1166.94V204.273H1155.06ZM1065.89 115.11C1115.14 115.11 1155.06 155.03 1155.06 204.273H1166.94C1166.94 148.464 1121.7 103.222 1065.89 103.222V115.11ZM584.455 115.11H1065.89V103.222H584.455V115.11ZM578.51 82.0397V109.166H590.399V82.0397H578.51ZM528.975 32.5047C556.333 32.5047 578.51 54.6823 578.51 82.0397H590.399C590.399 48.1165 562.899 20.6164 528.975 20.6164V32.5047ZM82.2886 32.5047H528.975V20.6164H82.2886V32.5047Z" fill="black" mask="url(#path-5-inside-3_20_3)"/>
</mask>
<g mask="url(#mask0_20_3)">
<g filter="url(#filter0_f_20_3)">
<path d="M560.295 604.384C560.295 978.447 223.774 1281.68 -191.346 1281.68C-606.465 1281.68 -942.986 978.447 -942.986 604.384C-942.986 230.322 -606.465 -72.9155 -191.346 -72.9155C223.774 -72.9155 560.295 230.322 560.295 604.384Z" fill="#FAD16A"/>
<path d="M1603.45 -388.931C1930.14 21.5541 1941.08 518.397 1627.88 720.798C1314.67 923.199 795.931 754.512 469.237 344.027C142.543 -66.4586 131.608 -563.301 444.813 -765.702C758.017 -968.103 1276.76 -799.417 1603.45 -388.931Z" fill="#FF844E"/>
<path d="M1485.49 444.988C1713.13 731.019 1655.64 1119.3 1357.09 1312.24C1058.53 1505.17 631.955 1429.7 404.311 1143.67C176.668 857.642 234.156 469.363 532.714 276.426C831.273 83.49 1257.84 158.958 1485.49 444.988Z" fill="#FF5252"/>
</g>
<path fill-rule="evenodd" clip-rule="evenodd" d="M127.865 158.014C147.563 158.014 163.531 142.047 163.531 122.349C163.531 102.652 147.563 86.6841 127.865 86.6841C108.168 86.6841 92.2003 102.652 92.2003 122.349C92.2003 142.047 108.168 158.014 127.865 158.014ZM135.403 117.604L119.754 133.254C118.983 134.025 117.722 134.025 116.952 133.254C116.181 132.483 116.181 131.222 116.952 130.452L132.601 114.802L118.927 114.802C118.668 114.802 118.411 114.751 118.171 114.652C117.931 114.552 117.714 114.407 117.53 114.223C117.347 114.04 117.201 113.822 117.102 113.583C117.003 113.343 116.952 113.086 116.952 112.827C116.952 112.567 117.003 112.31 117.102 112.071C117.201 111.831 117.347 111.613 117.53 111.43C117.714 111.246 117.931 111.101 118.171 111.001C118.411 110.902 118.668 110.851 118.927 110.851L137.393 110.851C137.652 110.851 137.909 110.902 138.149 111.001C138.389 111.1 138.607 111.246 138.79 111.429C138.974 111.613 139.119 111.83 139.219 112.07C139.318 112.31 139.369 112.567 139.368 112.827L139.368 131.293C139.369 131.552 139.318 131.809 139.219 132.049C139.119 132.289 138.974 132.507 138.79 132.69C138.607 132.873 138.389 133.019 138.149 133.118C137.909 133.217 137.652 133.268 137.393 133.268C136.3 133.268 135.403 132.371 135.403 131.279L135.403 117.604Z" fill="#1F2023"/>
</g>
<defs>
<filter id="filter0_f_20_3" x="-1677.76" y="-1586.11" width="4268.35" height="3739.99" filterUnits="userSpaceOnUse" color-interpolation-filters="sRGB">
<feFlood flood-opacity="0" result="BackgroundImageFix"/>
<feBlend mode="normal" in="SourceGraphic" in2="BackgroundImageFix" result="shape"/>
<feGaussianBlur stdDeviation="367.389" result="effect1_foregroundBlur_20_3"/>
</filter>
</defs>
</svg>
