<svg width="589" height="503" viewBox="0 0 589 503" fill="none" xmlns="http://www.w3.org/2000/svg">
<mask id="path-1-inside-1_433_3347" fill="white">
<path fill-rule="evenodd" clip-rule="evenodd" d="M24 0C10.7452 0 0 10.7452 0 24V41.6904V48V438.69C0 465.2 21.4903 486.69 48 486.69H515.162C541.672 486.69 563.162 465.2 563.162 438.69V89.6904C563.162 63.1808 541.672 41.6904 515.162 41.6904H274.874V28C274.874 12.536 262.338 0 246.874 0H24Z"/>
</mask>
<path fill-rule="evenodd" clip-rule="evenodd" d="M24 0C10.7452 0 0 10.7452 0 24V41.6904V48V438.69C0 465.2 21.4903 486.69 48 486.69H515.162C541.672 486.69 563.162 465.2 563.162 438.69V89.6904C563.162 63.1808 541.672 41.6904 515.162 41.6904H274.874V28C274.874 12.536 262.338 0 246.874 0H24Z" fill="#1F2023"/>
<path d="M274.874 41.6904H271.874V44.6904H274.874V41.6904ZM3 24C3 12.402 12.402 3 24 3V-3C9.08831 -3 -3 9.08831 -3 24H3ZM3 41.6904V24H-3V41.6904H3ZM3 48V41.6904H-3V48H3ZM3 438.69V48H-3V438.69H3ZM48 483.69C23.1472 483.69 3 463.543 3 438.69H-3C-3 466.857 19.8335 489.69 48 489.69V483.69ZM515.162 483.69H48V489.69H515.162V483.69ZM560.162 438.69C560.162 463.543 540.015 483.69 515.162 483.69V489.69C543.328 489.69 566.162 466.857 566.162 438.69H560.162ZM560.162 89.6904V438.69H566.162V89.6904H560.162ZM515.162 44.6904C540.015 44.6904 560.162 64.8376 560.162 89.6904H566.162C566.162 61.5239 543.328 38.6904 515.162 38.6904V44.6904ZM274.874 44.6904H515.162V38.6904H274.874V44.6904ZM271.874 28V41.6904H277.874V28H271.874ZM246.874 3C260.681 3 271.874 14.1929 271.874 28H277.874C277.874 10.8792 263.995 -3 246.874 -3V3ZM24 3H246.874V-3H24V3Z" fill="#1F2023" mask="url(#path-1-inside-1_433_3347)"/>
<mask id="path-3-outside-2_433_3347" maskUnits="userSpaceOnUse" x="14.5305" y="10" width="575" height="493" fill="black">
<rect fill="white" x="14.5305" y="10" width="575" height="493"/>
<path fill-rule="evenodd" clip-rule="evenodd" d="M41.5305 13C28.2757 13 17.5305 23.7452 17.5305 37V54.6904V61V451.69C17.5305 478.2 39.0208 499.69 65.5305 499.69H537.95C564.46 499.69 585.95 478.2 585.95 451.69V102.69C585.95 76.1808 564.46 54.6904 537.95 54.6904H294.971V41C294.971 25.536 282.435 13 266.971 13H41.5305Z"/>
</mask>
<path fill-rule="evenodd" clip-rule="evenodd" d="M41.5305 13C28.2757 13 17.5305 23.7452 17.5305 37V54.6904V61V451.69C17.5305 478.2 39.0208 499.69 65.5305 499.69H537.95C564.46 499.69 585.95 478.2 585.95 451.69V102.69C585.95 76.1808 564.46 54.6904 537.95 54.6904H294.971V41C294.971 25.536 282.435 13 266.971 13H41.5305Z" fill="white"/>
<path d="M294.971 54.6904H291.971V57.6904H294.971V54.6904ZM20.5305 37C20.5305 25.402 29.9325 16 41.5305 16V10C26.6188 10 14.5305 22.0883 14.5305 37H20.5305ZM20.5305 54.6904V37H14.5305V54.6904H20.5305ZM20.5305 61V54.6904H14.5305V61H20.5305ZM20.5305 451.69V61H14.5305V451.69H20.5305ZM65.5305 496.69C40.6777 496.69 20.5305 476.543 20.5305 451.69H14.5305C14.5305 479.857 37.364 502.69 65.5305 502.69V496.69ZM537.95 496.69H65.5305V502.69H537.95V496.69ZM582.95 451.69C582.95 476.543 562.803 496.69 537.95 496.69V502.69C566.116 502.69 588.95 479.857 588.95 451.69H582.95ZM582.95 102.69V451.69H588.95V102.69H582.95ZM537.95 57.6904C562.803 57.6904 582.95 77.8376 582.95 102.69H588.95C588.95 74.5239 566.117 51.6904 537.95 51.6904V57.6904ZM294.971 57.6904H537.95V51.6904H294.971V57.6904ZM291.971 41V54.6904H297.971V41H291.971ZM266.971 16C280.778 16 291.971 27.1929 291.971 41H297.971C297.971 23.8792 284.092 10 266.971 10V16ZM41.5305 16H266.971V10H41.5305V16Z" fill="#1F2023" mask="url(#path-3-outside-2_433_3347)"/>
<mask id="mask0_433_3347" style="mask-type:alpha" maskUnits="userSpaceOnUse" x="17" y="13" width="569" height="487">
<mask id="path-5-inside-3_433_3347" fill="white">
<path fill-rule="evenodd" clip-rule="evenodd" d="M41.5305 13C28.2757 13 17.5305 23.7452 17.5305 37V54.6904V61V451.69C17.5305 478.2 39.0208 499.69 65.5305 499.69H537.95C564.46 499.69 585.95 478.2 585.95 451.69V102.69C585.95 76.1808 564.46 54.6904 537.95 54.6904H294.971V41C294.971 25.536 282.435 13 266.971 13H41.5305Z"/>
</mask>
<path fill-rule="evenodd" clip-rule="evenodd" d="M41.5305 13C28.2757 13 17.5305 23.7452 17.5305 37V54.6904V61V451.69C17.5305 478.2 39.0208 499.69 65.5305 499.69H537.95C564.46 499.69 585.95 478.2 585.95 451.69V102.69C585.95 76.1808 564.46 54.6904 537.95 54.6904H294.971V41C294.971 25.536 282.435 13 266.971 13H41.5305Z" fill="white"/>
<path d="M294.971 54.6904H291.971V57.6904H294.971V54.6904ZM20.5305 37C20.5305 25.402 29.9325 16 41.5305 16V10C26.6188 10 14.5305 22.0883 14.5305 37H20.5305ZM20.5305 54.6904V37H14.5305V54.6904H20.5305ZM20.5305 61V54.6904H14.5305V61H20.5305ZM20.5305 451.69V61H14.5305V451.69H20.5305ZM65.5305 496.69C40.6777 496.69 20.5305 476.543 20.5305 451.69H14.5305C14.5305 479.857 37.364 502.69 65.5305 502.69V496.69ZM537.95 496.69H65.5305V502.69H537.95V496.69ZM582.95 451.69C582.95 476.543 562.803 496.69 537.95 496.69V502.69C566.116 502.69 588.95 479.857 588.95 451.69H582.95ZM582.95 102.69V451.69H588.95V102.69H582.95ZM537.95 57.6904C562.803 57.6904 582.95 77.8376 582.95 102.69H588.95C588.95 74.5239 566.117 51.6904 537.95 51.6904V57.6904ZM294.971 57.6904H537.95V51.6904H294.971V57.6904ZM291.971 41V54.6904H297.971V41H291.971ZM266.971 16C280.778 16 291.971 27.1929 291.971 41H297.971C297.971 23.8792 284.092 10 266.971 10V16ZM41.5305 16H266.971V10H41.5305V16Z" fill="black" mask="url(#path-5-inside-3_433_3347)"/>
</mask>
<g mask="url(#mask0_433_3347)">
<g filter="url(#filter0_f_433_3347)">
<path d="M282.778 304.625C282.778 493.412 112.938 646.454 -96.571 646.454C-306.079 646.454 -475.92 493.412 -475.92 304.625C-475.92 115.838 -306.079 -37.2045 -96.571 -37.2045C112.938 -37.2045 282.778 115.838 282.778 304.625Z" fill="white"/>
<path d="M809.252 -196.696C974.133 10.4738 979.652 261.227 821.579 363.378C663.507 465.528 401.702 380.394 236.821 173.224C71.9407 -33.9457 66.4218 -284.699 224.494 -386.85C382.567 -489 644.372 -403.866 809.252 -196.696Z" fill="white"/>
<path d="M749.717 224.179C864.608 368.537 835.594 564.499 684.913 661.873C534.232 759.247 318.944 721.159 204.054 576.801C89.1631 432.443 118.177 236.48 268.858 139.106C419.539 41.7324 634.827 79.8206 749.717 224.179Z" fill="white"/>
</g>
<path fill-rule="evenodd" clip-rule="evenodd" d="M64.533 79.3438C74.4741 79.3438 82.533 71.2849 82.533 61.3438C82.533 51.4026 74.4741 43.3438 64.533 43.3438C54.5918 43.3438 46.533 51.4026 46.533 61.3438C46.533 71.2849 54.5918 79.3438 64.533 79.3438ZM68.3373 58.9489L60.4389 66.8473C60.05 67.2362 59.4136 67.2362 59.0247 66.8473C58.6358 66.4584 58.6358 65.822 59.0247 65.4331L66.9231 57.5347L60.0217 57.5347C59.8908 57.5347 59.7611 57.5089 59.6402 57.4588C59.5192 57.4087 59.4093 57.3353 59.3167 57.2427C59.2241 57.1501 59.1507 57.0402 59.1006 56.9192C59.0505 56.7983 59.0247 56.6686 59.0247 56.5377C59.0247 56.4068 59.0505 56.2771 59.1006 56.1562C59.1507 56.0352 59.2241 55.9253 59.3167 55.8327C59.4093 55.7401 59.5192 55.6667 59.6402 55.6166C59.7611 55.5665 59.8908 55.5407 60.0217 55.5407L69.3414 55.5407C69.4723 55.5405 69.6021 55.5662 69.7231 55.6163C69.8441 55.6664 69.9541 55.7398 70.0467 55.8324C70.1393 55.925 70.2127 56.035 70.2628 56.156C70.3128 56.277 70.3385 56.4067 70.3384 56.5377L70.3384 65.8574C70.3385 65.9883 70.3128 66.118 70.2628 66.2391C70.2127 66.3601 70.1393 66.4701 70.0467 66.5627C69.9541 66.6553 69.8441 66.7287 69.7231 66.7788C69.6021 66.8288 69.4723 66.8545 69.3414 66.8544C68.7898 66.8544 68.3373 66.4018 68.3373 65.8503L68.3373 58.9489Z" fill="#1F2023"/>
</g>
<defs>
<filter id="filter0_f_433_3347" x="-846.758" y="-800.903" width="2154.21" height="1887.55" filterUnits="userSpaceOnUse" color-interpolation-filters="sRGB">
<feFlood flood-opacity="0" result="BackgroundImageFix"/>
<feBlend mode="normal" in="SourceGraphic" in2="BackgroundImageFix" result="shape"/>
<feGaussianBlur stdDeviation="185.419" result="effect1_foregroundBlur_433_3347"/>
</filter>
</defs>
</svg>
