<svg width="221" height="234" viewBox="0 0 221 234" fill="none" xmlns="http://www.w3.org/2000/svg">
<g filter="url(#filter0_d_1_3683)">
<path d="M91.8131 9.53781C101.873 3.92089 114.126 3.92089 124.186 9.53781L131.974 13.8865C135.756 15.9981 139.915 17.3494 144.216 17.864L153.073 18.9238C164.513 20.2927 174.426 27.4946 179.263 37.9519L183.008 46.0479C184.826 49.9793 187.396 53.5169 190.573 56.4613L197.116 62.5247C205.566 70.3565 209.353 82.0095 207.119 93.3128L205.39 102.064C204.551 106.313 204.551 110.686 205.39 114.935L207.119 123.686C209.353 134.99 205.566 146.643 197.116 154.475L190.573 160.538C187.396 163.482 184.826 167.02 183.008 170.951L179.263 179.047C174.426 189.505 164.513 196.707 153.073 198.075L144.216 199.135C139.915 199.65 135.756 201.001 131.974 203.113L124.186 207.461C114.126 213.078 101.873 213.078 91.8131 207.461L84.0247 203.113C80.2427 201.001 76.084 199.65 71.7831 199.135L62.9261 198.075C51.4859 196.707 41.5732 189.505 36.7361 179.047L32.9912 170.951C31.1727 167.02 28.6025 163.482 25.4255 160.538L18.8829 154.475C10.4322 146.643 6.64594 134.99 8.87928 123.686L10.6083 114.935C11.448 110.686 11.448 106.313 10.6083 102.064L8.87928 93.3128C6.64594 82.0095 10.4322 70.3565 18.8829 62.5247L25.4255 56.4613C28.6025 53.5169 31.1727 49.9793 32.9912 46.0479L36.7361 37.9519C41.5732 27.4946 51.4859 20.2927 62.9261 18.9238L71.7831 17.864C76.084 17.3494 80.2427 15.9981 84.0247 13.8865L91.8131 9.53781Z" fill="white"/>
<path d="M125.431 7.30784C114.597 1.25885 101.402 1.25885 90.568 7.30784L82.7796 11.6565C79.2885 13.6057 75.4497 14.853 71.4797 15.3281L62.6226 16.3879C50.3024 17.862 39.6272 25.618 34.4181 36.8797L30.6732 44.9757C28.9946 48.6047 26.6221 51.8701 23.6894 54.588L17.1469 60.6514C8.04612 69.0857 3.96856 81.6351 6.37369 93.8079L8.10275 102.559C8.87778 106.481 8.87778 110.518 8.10275 114.44L6.3737 123.191C3.96856 135.364 8.04612 147.914 17.1469 156.348L23.6894 162.411C26.6221 165.129 28.9946 168.395 30.6732 172.024L34.4181 180.12C39.6272 191.381 50.3024 199.137 62.6226 200.611L71.4796 201.671C75.4497 202.146 79.2885 203.394 82.7796 205.343L90.568 209.691C101.402 215.74 114.597 215.74 125.431 209.691L133.219 205.343C136.71 203.394 140.549 202.146 144.519 201.671L153.376 200.611C165.696 199.137 176.372 191.381 181.581 180.12L185.326 172.024C187.004 168.395 189.377 165.129 192.309 162.411L198.852 156.348C207.953 147.914 212.03 135.364 209.625 123.191L207.896 114.44C207.121 110.518 207.121 106.481 207.896 102.559L209.625 93.8079C212.03 81.6351 207.953 69.0857 198.852 60.6514L192.309 54.588C189.377 51.8701 187.004 48.6047 185.326 44.9757L181.581 36.8797C176.372 25.618 165.696 17.862 153.376 16.3879L144.519 15.3281C140.549 14.853 136.71 13.6057 133.219 11.6565L125.431 7.30784Z" stroke="#1F2023" stroke-width="5.10804"/>
</g>
<path d="M90.0724 138.464C88.2453 138.112 86.52 137.269 85.042 136.005C75.0378 129.618 64.751 123.455 54.9164 116.589C53.2393 115.421 52.0247 113.568 51.5251 111.415C51.7089 109.601 51.7089 107.769 51.5251 105.954C51.9695 104.214 52.7956 102.627 53.9269 101.343C55.0582 100.059 56.4581 99.1191 57.9968 98.6093C59.0216 98.0832 60.1419 97.8378 61.2664 97.8933C62.391 97.9488 63.4881 98.3036 64.4684 98.9287C69.0749 101.547 73.3987 104.741 77.892 107.519C78.2065 107.744 78.4453 108.081 78.5704 108.477C82.5268 111.671 87.0485 114.002 91.2028 116.844C94.1983 118.888 97.7026 120.038 99.6809 123.806C100.238 124.774 100.613 125.861 100.783 127C100.501 128.181 100.501 129.427 100.783 130.608C100.532 132.51 99.7807 134.282 98.6264 135.694C97.4723 137.107 95.9687 138.094 94.3115 138.528C92.9087 138.274 91.4806 138.252 90.0724 138.464Z" fill="#4285F4"/>
<path d="M137.36 108.582L120.771 97.9151C119.923 97.3722 119.132 96.7016 118.341 96.0948C117.846 95.0933 117.136 94.2478 116.278 93.6358C113.056 87.9833 114.836 81.9156 120.573 79.0095C120.891 79.1764 121.245 79.232 121.591 79.1692C121.76 79.1692 121.93 79.1692 122.099 79.1692C122.269 79.1692 121.647 78.9776 121.506 78.7221C122.46 78.2612 123.499 78.0697 124.532 78.1643C125.566 78.2589 126.565 78.6367 127.44 79.265C133.94 83.3846 140.497 87.4404 146.912 91.7836C150.134 93.9552 153.44 96.1267 156.86 97.9471C160.004 99.1988 162.616 101.741 164.179 105.069C166.186 110.306 163.812 115.352 158.216 118.353H157.849C156.323 118.353 154.768 118.353 153.27 118.641C149.16 116.882 145.236 114.612 141.571 111.871C139.96 111.009 138.208 110.466 137.36 108.582Z" fill="#0F9D58"/>
<path d="M137.354 108.582L150.524 116.853C151.399 117.32 152.295 117.736 153.209 118.098C154.807 117.955 156.414 117.955 158.013 118.098V118.29C147.867 124.677 137.806 131.415 127.576 137.707C125.491 138.918 123.067 139.148 120.832 138.347C118.598 137.545 116.735 135.776 115.65 133.427C115.076 132.28 114.717 131.012 114.597 129.702C114.476 128.391 114.596 127.067 114.949 125.811C115.301 124.555 115.879 123.395 116.647 122.403C117.414 121.411 118.355 120.609 119.409 120.047C125.4 116.342 131.391 112.414 137.354 108.582Z" fill="#FBBC04"/>
<path d="M78.5455 108.482C74.424 106.358 70.4473 103.892 66.6479 101.105C64.0952 99.1725 61.0314 98.2928 57.972 98.614C67.7784 92.227 77.7543 85.9996 87.391 79.6126C92.3085 76.4191 99.9387 79.6126 100.815 86.287C100.508 87.4649 100.508 88.7178 100.815 89.8957C100.646 91.3658 100.147 92.7627 99.3655 93.9534C98.584 95.1441 97.5457 96.0889 96.3496 96.6979C90.528 100.722 84.5368 104.554 78.5455 108.482Z" fill="#EA4335"/>
<path d="M51.4954 105.962C51.8244 106.825 51.994 107.754 51.994 108.693C51.994 109.632 51.8244 110.561 51.4954 111.423C50.9877 109.648 50.9877 107.737 51.4954 105.962Z" fill="#1F2023"/>
<path d="M90.0687 138.475C90.7244 138.058 91.4641 137.839 92.2165 137.839C92.9689 137.839 93.7086 138.058 94.3643 138.475C92.9679 138.985 91.4649 138.985 90.0687 138.475Z" fill="#1F2023"/>
<path d="M116.267 93.6292C117.34 94.0124 118.415 94.4275 118.33 96.0882C117.859 95.8524 117.435 95.5137 117.081 95.0917C116.727 94.6696 116.45 94.1726 116.267 93.6292Z" fill="#1F2023"/>
<path d="M100.874 89.8944C100.552 89.3631 100.38 88.7341 100.38 88.0901C100.38 87.4461 100.552 86.8171 100.874 86.2858C101.086 87.4768 101.086 88.7034 100.874 89.8944Z" fill="#1F2023"/>
<path d="M100.837 130.521C100.515 129.99 100.343 129.361 100.343 128.717C100.343 128.073 100.515 127.444 100.837 126.912C101.063 128.102 101.063 129.332 100.837 130.521Z" fill="#1F2023"/>
<path d="M121.502 78.8191L123.085 79.0746C122.721 79.378 122.28 79.5417 121.827 79.5417C121.375 79.5417 120.934 79.378 120.57 79.0746L121.502 78.8191Z" fill="#1F2023"/>
<path d="M158.004 118.167C156.441 118.725 154.763 118.725 153.2 118.167C153.951 117.768 154.772 117.562 155.602 117.562C156.432 117.562 157.252 117.768 158.004 118.167Z" fill="#1F2023"/>
<defs>
<filter id="filter0_d_1_3683" x="3.14076" y="0.217041" width="217.744" height="232.984" filterUnits="userSpaceOnUse" color-interpolation-filters="sRGB">
<feFlood flood-opacity="0" result="BackgroundImageFix"/>
<feColorMatrix in="SourceAlpha" type="matrix" values="0 0 0 0 0 0 0 0 0 0 0 0 0 0 0 0 0 0 127 0" result="hardAlpha"/>
<feOffset dx="8.02693" dy="16.4187"/>
<feComposite in2="hardAlpha" operator="out"/>
<feColorMatrix type="matrix" values="0 0 0 0 0.0980392 0 0 0 0 0.0823529 0 0 0 0 0.290196 0 0 0 1 0"/>
<feBlend mode="normal" in2="BackgroundImageFix" result="effect1_dropShadow_1_3683"/>
<feBlend mode="normal" in="SourceGraphic" in2="effect1_dropShadow_1_3683" result="shape"/>
</filter>
</defs>
</svg>
